<svg width="48" height="71" viewBox="0 0 48 71" fill="none" xmlns="http://www.w3.org/2000/svg">
<rect y="22.72" width="13.9355" height="48.28" fill="white"/>
<rect x="17.0322" y="11.36" width="13.9355" height="59.64" fill="white"/>
<rect x="34.0645" y="39.76" width="13.9355" height="31.24" fill="white"/>
<line x1="5.575e-08" y1="19.38" x2="13.9355" y2="19.38" stroke="black"/>
<line x1="1.54883" y1="16.54" x2="12.3875" y2="16.54" stroke="black"/>
<line x1="7.24219" y1="14.2" x2="7.24219" y2="11.36" stroke="black"/>
<line x1="17.0322" y1="8.01999" x2="30.9677" y2="8.01999" stroke="black"/>
<line x1="18.5811" y1="5.17999" x2="29.4198" y2="5.17999" stroke="black"/>
<line x1="24.2744" y1="2.84" x2="24.2744" y2="-3.59632e-06" stroke="black"/>
<line x1="34.0645" y1="36.42" x2="47.9999" y2="36.42" stroke="black"/>
<line x1="35.6133" y1="33.58" x2="46.452" y2="33.58" stroke="black"/>
<line x1="41.3066" y1="31.24" x2="41.3066" y2="28.4" stroke="black"/>
<rect y="22.72" width="13.9355" height="48.28" fill="#FB8500"/>
<rect x="17.0322" y="11.36" width="13.9355" height="59.64" fill="#FB8500"/>
<rect x="34.0645" y="39.76" width="13.9355" height="31.24" fill="#FB8500"/>
<line x1="5.575e-08" y1="19.38" x2="13.9355" y2="19.38" stroke="#FFB703"/>
<line x1="1.54883" y1="16.54" x2="12.3875" y2="16.54" stroke="#FFB703"/>
<line x1="7.24219" y1="14.2" x2="7.24219" y2="11.36" stroke="#FFB703"/>
<line x1="17.0322" y1="8.01999" x2="30.9677" y2="8.01999" stroke="#FFB703"/>
<line x1="18.5811" y1="5.17999" x2="29.4198" y2="5.17999" stroke="#FFB703"/>
<line x1="24.2744" y1="2.84" x2="24.2744" y2="-3.59632e-06" stroke="#FFB703"/>
<line x1="34.0645" y1="36.42" x2="47.9999" y2="36.42" stroke="#FFB703"/>
<line x1="35.6133" y1="33.58" x2="46.452" y2="33.58" stroke="#FFB703"/>
<line x1="41.3066" y1="31.24" x2="41.3066" y2="28.4" stroke="#FFB703"/>
</svg>
