<svg width="49" height="62" viewBox="0 0 49 62" fill="none" xmlns="http://www.w3.org/2000/svg">
<path d="M32.9166 26.2917C30.3639 26.2917 27.9157 25.2776 26.1107 23.4726C24.3056 21.6675 23.2916 19.2194 23.2916 16.6667V3.83333H10.4583C8.75645 3.83333 7.12434 4.50937 5.92098 5.71273C4.71762 6.91609 4.04159 8.54819 4.04159 10.25V51.9583C4.04159 53.6601 4.71762 55.2922 5.92098 56.4956C7.12434 57.699 8.75645 58.375 10.4583 58.375H39.3333C41.0351 58.375 42.6672 57.699 43.8705 56.4956C45.0739 55.2922 45.7499 53.6601 45.7499 51.9583V26.2917H32.9166ZM26.4999 16.6667C26.4999 18.3685 27.176 20.0006 28.3793 21.2039C29.5827 22.4073 31.2148 23.0833 32.9166 23.0833H44.4345L26.4999 5.14875V16.6667ZM10.4583 0.625H26.4999L48.9583 23.0833V51.9583C48.9583 54.511 47.9442 56.9592 46.1392 58.7642C44.3341 60.5693 41.886 61.5833 39.3333 61.5833H10.4583C7.90554 61.5833 5.45739 60.5693 3.65235 58.7642C1.84731 56.9592 0.833252 54.511 0.833252 51.9583V10.25C0.833252 7.69729 1.84731 5.24914 3.65235 3.4441C5.45739 1.63906 7.90554 0.625 10.4583 0.625Z" fill="black"/>
</svg>
